<svg width="1305" height="2825" viewBox="0 0 1305 2825" fill="none" xmlns="http://www.w3.org/2000/svg">
<rect width="1305" height="2825" fill="white"/>
<rect x="160" y="109" width="986" height="2972" fill="#C6BEB3"/>
<path d="M1145 434L159 434" stroke="#9E9E9E" stroke-width="12"/>
<path d="M1145 742L159 742" stroke="#9E9E9E" stroke-width="12"/>
<path d="M1145 1050H159" stroke="#9E9E9E" stroke-width="12"/>
<path d="M1145 1666H159" stroke="#9E9E9E" stroke-width="12"/>
<path d="M1145 1358H159" stroke="#9E9E9E" stroke-width="12"/>
<path d="M1145 1974H159" stroke="#9E9E9E" stroke-width="12"/>
<path d="M1145 2282H159" stroke="#9E9E9E" stroke-width="12"/>
<path d="M1144 2590L159 2590" stroke="#9E9E9E" stroke-width="12"/>
<path d="M1146 121L160 121" stroke="black" stroke-width="24"/>
<path d="M1066 109L1066 2967" stroke="#606060" stroke-width="6"/>
<path d="M571 109L571 2967" stroke="#606060" stroke-width="12"/>
<path d="M902 109L902 2994" stroke="#606060" stroke-width="6"/>
<path d="M737 109L737 2967" stroke="#606060" stroke-width="6"/>
<path d="M405 109L405 2967" stroke="#606060" stroke-width="14"/>
<path d="M240 109L240 2967" stroke="#606060" stroke-width="16"/>
<path d="M677 2669.76C382 2615.49 184.167 2663.08 110 2761.6V3128.99H1180V2669.76C1127.17 2737.67 991.904 2727.68 677 2669.76Z" fill="white"/>
<path d="M649 268.235C944 322.501 1141.83 274.915 1216 176.388V24L146 24V268.235C198.833 200.324 334.096 210.309 649 268.235Z" fill="white"/>
</svg>
